<svg width="200" height="64" viewBox="0 0 336 64" fill="none" xmlns="http://www.w3.org/2000/svg">
                    <rect opacity="0.05" x="240" width="96" height="64" rx="8" fill="#E0E0E0" />
                    <g clip-path="url(#clip0_1_31)">
                        <path
                            d="M307.402 36.8368C304.73 47.5568 293.869 54.0733 283.164 51.401C272.444 48.7288 265.927 37.8682 268.599 27.1637C271.272 16.4437 282.117 9.9271 292.837 12.5994C303.542 15.256 310.074 26.1166 307.402 36.8368Z"
                            fill="#E0E0E0" />
                        <path
                            d="M297.523 29.5081C297.914 26.8518 295.898 25.4143 293.117 24.4612L294.023 20.8518L291.836 20.3049L290.961 23.8206C290.383 23.6799 289.789 23.5393 289.195 23.4143L290.07 19.8831L287.883 19.3362L286.992 22.9299C286.508 22.8206 286.039 22.7112 285.586 22.6018V22.5862L282.554 21.8362L281.976 24.1799C281.976 24.1799 283.601 24.5549 283.57 24.5706C284.461 24.7893 284.617 25.3831 284.586 25.8518L283.554 29.9612C283.617 29.9768 283.695 29.9924 283.789 30.0393C283.711 30.0237 283.633 30.0081 283.554 29.9768L282.117 35.7268C282.008 35.9924 281.726 36.3987 281.117 36.2424C281.133 36.2737 279.523 35.8518 279.523 35.8518L278.429 38.3674L281.289 39.0862C281.82 39.2268 282.336 39.3518 282.851 39.4924L281.945 43.1331L284.133 43.6799L285.039 40.0706C285.633 40.2268 286.226 40.3831 286.789 40.5237L285.898 44.1174L288.086 44.6643L288.992 41.0237C292.742 41.7268 295.554 41.4456 296.726 38.0549C297.679 35.3362 296.679 33.7581 294.711 32.7268C296.164 32.3987 297.242 31.4456 297.523 29.5081V29.5081ZM292.508 36.5393C291.836 39.2581 287.242 37.7893 285.758 37.4143L286.961 32.5862C288.445 32.9612 293.226 33.6956 292.508 36.5393ZM293.195 29.4612C292.57 31.9456 288.758 30.6799 287.523 30.3674L288.617 25.9924C289.851 26.3049 293.836 26.8831 293.195 29.4612Z"
                            fill="#0D0D2B" />
                    </g>
                    <rect opacity="0.05" x="120" width="96" height="64" rx="8" fill="#E0E0E0" />
                    <path d="M161.494 20.2275H174.459V43.9539H161.494V20.2275Z" fill="#BDBDBD" />
                    <path
                        d="M162.317 32.091C162.317 27.2703 164.539 22.9945 167.956 20.2277C165.445 18.2156 162.276 17 158.818 17C150.627 17 144 23.7489 144 32.091C144 40.4328 150.627 47.1819 158.818 47.1819C162.275 47.1819 165.445 45.9663 167.956 43.954C164.539 41.2293 162.317 36.9116 162.317 32.091V32.091Z"
                        fill="#828282" />
                    <path
                        d="M191.952 32.091C191.952 40.4328 185.326 47.1819 177.134 47.1819C173.677 47.1819 170.508 45.9663 167.997 43.954C171.454 41.1875 173.636 36.9116 173.636 32.091C173.636 27.2703 171.413 22.9945 167.997 20.2277C170.507 18.2156 173.677 17 177.134 17C185.326 17 191.953 23.7909 191.953 32.091H191.952Z"
                        fill="#E0E0E0" />
                    <rect opacity="0.05" width="96" height="64" rx="8" fill="#E0E0E0" />
                    <g clip-path="url(#clip1_1_31)">
                        <path
                            d="M58.8931 24.6551C57.7776 24.213 56.5985 23.9912 55.4112 24C51.5718 24 48.8602 26.1037 48.841 29.1236C48.817 31.3421 50.7679 32.5924 52.2437 33.3336C53.7579 34.0958 54.2642 34.576 54.2594 35.2573C54.2498 36.2935 53.05 36.7633 51.9341 36.7633C50.4008 36.7633 49.5633 36.531 48.2747 35.9489L47.7972 35.7062L47.2525 39.1828C48.1859 39.6056 49.8681 39.9684 51.6054 39.9998C55.6872 39.9998 58.3556 37.9091 58.3868 34.6961C58.4204 32.9238 57.3645 31.5849 55.1425 30.4782C53.7915 29.7604 52.954 29.2802 52.954 28.552C52.954 27.9073 53.6715 27.2182 55.1713 27.2182C56.1694 27.192 57.1614 27.3957 58.082 27.8159L58.442 27.9908L58.9867 24.6316L58.8931 24.6551V24.6551ZM68.8564 24.2819H65.8569C64.9234 24.2819 64.2203 24.5612 63.8124 25.5687L58.0436 39.7831H62.1254L62.9413 37.4523L67.923 37.4575C68.0405 38.003 68.4005 39.7831 68.4005 39.7831H71.9999L68.8564 24.2819V24.2819ZM43.3194 24.1514H47.2093L44.776 39.6604H40.891L43.3194 24.1462V24.1514V24.1514ZM33.4449 32.6994L33.8481 34.8527L37.6491 24.2819H41.7693L35.6478 39.7622H31.5372L28.1777 26.6545C28.1233 26.4383 27.9955 26.2527 27.8202 26.135C26.6093 25.4547 25.3263 24.9384 23.9999 24.5977L24.0527 24.2715H30.3134C31.1629 24.308 31.8468 24.5977 32.0747 25.5843L33.4425 32.7072V32.6994H33.4449ZM64.0571 34.2811L65.6073 29.9431C65.5881 29.9901 65.9265 29.0479 66.1232 28.4658L66.3896 29.8048L67.2894 34.2785H64.0547V34.2811H64.0571Z"
                            fill="#E0E0E0" />
                    </g>
                    <defs>
                        <clipPath id="clip0_1_31">
                            <rect width="40" height="40" fill="white" transform="translate(268 12)" />
                        </clipPath>
                        <clipPath id="clip1_1_31">
                            <rect width="48" height="48" fill="white" transform="translate(24 8)" />
                        </clipPath>
                    </defs>
                </svg>
